<mxfile host="Electron" modified="2024-05-18T10:18:08.706Z" agent="5.0 (Windows NT 10.0; Win64; x64) AppleWebKit/537.36 (KHTML, like Gecko) draw.io/20.8.16 Chrome/106.0.5249.199 Electron/21.4.0 Safari/537.36" etag="loizpgBTGwZQArDwzV0Z" compressed="false" version="20.8.16" type="device">
  <diagram name="v5" id="9n7vPRytGBd8-qQ8bjde">
    <mxGraphModel dx="638" dy="440" grid="1" gridSize="10" guides="1" tooltips="1" connect="1" arrows="1" fold="1" page="1" pageScale="1" pageWidth="827" pageHeight="1169" math="0" shadow="0">
      <root>
        <mxCell id="AcLKcFcPObNCE5Jz1mWQ-0" />
        <mxCell id="AcLKcFcPObNCE5Jz1mWQ-1" parent="AcLKcFcPObNCE5Jz1mWQ-0" />
        <object label="%id%" placeholders="1" type="platform" id="p00">
          <mxCell style="rounded=0;whiteSpace=wrap;html=1;fontSize=8;" parent="AcLKcFcPObNCE5Jz1mWQ-1" vertex="1">
            <mxGeometry x="240" y="260" width="120" height="40" as="geometry" />
          </mxCell>
        </object>
        <object label="%id%" placeholders="1" type="platform" id="p01">
          <mxCell style="rounded=0;whiteSpace=wrap;html=1;fontSize=8;" parent="AcLKcFcPObNCE5Jz1mWQ-1" vertex="1">
            <mxGeometry x="240" y="420" width="120" height="40" as="geometry" />
          </mxCell>
        </object>
        <object label="%id%" placeholders="1" type="platform" id="p02">
          <mxCell style="rounded=0;whiteSpace=wrap;html=1;fontSize=8;" parent="AcLKcFcPObNCE5Jz1mWQ-1" vertex="1">
            <mxGeometry x="520" y="180" width="120" height="40" as="geometry" />
          </mxCell>
        </object>
        <object label="%id%" placeholders="1" type="platform" id="p04">
          <mxCell style="rounded=0;whiteSpace=wrap;html=1;fontSize=8;" parent="AcLKcFcPObNCE5Jz1mWQ-1" vertex="1">
            <mxGeometry x="800" y="180" width="120" height="40" as="geometry" />
          </mxCell>
        </object>
        <object label="%id%" placeholders="1" type="platform" id="p06">
          <mxCell style="rounded=0;whiteSpace=wrap;html=1;fontSize=8;" parent="AcLKcFcPObNCE5Jz1mWQ-1" vertex="1">
            <mxGeometry x="1080" y="180" width="120" height="40" as="geometry" />
          </mxCell>
        </object>
        <object label="%id%" placeholders="1" type="platform" id="p08">
          <mxCell style="rounded=0;whiteSpace=wrap;html=1;fontSize=8;" parent="AcLKcFcPObNCE5Jz1mWQ-1" vertex="1">
            <mxGeometry x="1360" y="180" width="120" height="40" as="geometry" />
          </mxCell>
        </object>
        <object label="%id%" placeholders="1" type="platform" id="p11">
          <mxCell style="rounded=0;whiteSpace=wrap;html=1;fontSize=8;" parent="AcLKcFcPObNCE5Jz1mWQ-1" vertex="1">
            <mxGeometry x="1640" y="260" width="120" height="40" as="geometry" />
          </mxCell>
        </object>
        <object label="%id%" placeholders="1" type="platform" id="p12">
          <mxCell style="rounded=0;whiteSpace=wrap;html=1;fontSize=8;" parent="AcLKcFcPObNCE5Jz1mWQ-1" vertex="1">
            <mxGeometry x="1640" y="420" width="120" height="40" as="geometry" />
          </mxCell>
        </object>
        <object label="%id%" placeholders="1" type="platform" id="p09">
          <mxCell style="rounded=0;whiteSpace=wrap;html=1;fontSize=8;" parent="AcLKcFcPObNCE5Jz1mWQ-1" vertex="1">
            <mxGeometry x="1360" y="340" width="120" height="40" as="geometry" />
          </mxCell>
        </object>
        <object label="%id%" placeholders="1" type="platform" id="p10">
          <mxCell style="rounded=0;whiteSpace=wrap;html=1;fontSize=8;" parent="AcLKcFcPObNCE5Jz1mWQ-1" vertex="1">
            <mxGeometry x="1360" y="500" width="120" height="40" as="geometry" />
          </mxCell>
        </object>
        <object label="%id%" placeholders="1" type="platform" id="p07">
          <mxCell style="rounded=0;whiteSpace=wrap;html=1;fontSize=8;" parent="AcLKcFcPObNCE5Jz1mWQ-1" vertex="1">
            <mxGeometry x="1080" y="500" width="120" height="40" as="geometry" />
          </mxCell>
        </object>
        <object label="%id%" placeholders="1" type="platform" id="p03">
          <mxCell style="rounded=0;whiteSpace=wrap;html=1;fontSize=8;" parent="AcLKcFcPObNCE5Jz1mWQ-1" vertex="1">
            <mxGeometry x="520" y="500" width="120" height="40" as="geometry" />
          </mxCell>
        </object>
        <object label="%id%" placeholders="1" type="platform" id="p05">
          <mxCell style="rounded=0;whiteSpace=wrap;html=1;fontSize=8;" parent="AcLKcFcPObNCE5Jz1mWQ-1" vertex="1">
            <mxGeometry x="800" y="420" width="120" height="40" as="geometry" />
          </mxCell>
        </object>
        <object label="%id%" placeholders="1" type="junction" id="c142">
          <mxCell style="ellipse;whiteSpace=wrap;html=1;aspect=fixed;fontSize=8;" parent="AcLKcFcPObNCE5Jz1mWQ-1" vertex="1">
            <mxGeometry x="510" y="230" width="20" height="20" as="geometry" />
          </mxCell>
        </object>
        <object label="%id%" placeholders="1" type="junction" id="j04">
          <mxCell style="ellipse;whiteSpace=wrap;html=1;aspect=fixed;fontSize=8;" parent="AcLKcFcPObNCE5Jz1mWQ-1" vertex="1">
            <mxGeometry x="750" y="310" width="20" height="20" as="geometry" />
          </mxCell>
        </object>
        <object label="%id%" placeholders="1" type="junction" id="j05">
          <mxCell style="ellipse;whiteSpace=wrap;html=1;aspect=fixed;fontSize=8;" parent="AcLKcFcPObNCE5Jz1mWQ-1" vertex="1">
            <mxGeometry x="990" y="230" width="20" height="20" as="geometry" />
          </mxCell>
        </object>
        <object label="%id%" placeholders="1" type="junction" id="j06">
          <mxCell style="ellipse;whiteSpace=wrap;html=1;aspect=fixed;fontSize=8;" parent="AcLKcFcPObNCE5Jz1mWQ-1" vertex="1">
            <mxGeometry x="1030" y="230" width="20" height="20" as="geometry" />
          </mxCell>
        </object>
        <object label="%id%" placeholders="1" type="junction" id="j07">
          <mxCell style="ellipse;whiteSpace=wrap;html=1;aspect=fixed;fontSize=8;" parent="AcLKcFcPObNCE5Jz1mWQ-1" vertex="1">
            <mxGeometry x="1070" y="310" width="20" height="20" as="geometry" />
          </mxCell>
        </object>
        <object label="%id%" placeholders="1" type="junction" id="c123">
          <mxCell style="ellipse;whiteSpace=wrap;html=1;aspect=fixed;fontSize=8;" parent="AcLKcFcPObNCE5Jz1mWQ-1" vertex="1">
            <mxGeometry x="1630" y="390" width="20" height="20" as="geometry" />
          </mxCell>
        </object>
        <object label="%id%" placeholders="1" type="junction" id="c139">
          <mxCell style="ellipse;whiteSpace=wrap;html=1;aspect=fixed;perimeter=ellipsePerimeter;fontSize=8;" parent="AcLKcFcPObNCE5Jz1mWQ-1" vertex="1">
            <mxGeometry x="230" y="310" width="20" height="20" as="geometry" />
          </mxCell>
        </object>
        <object label="%id%" placeholders="1" type="junction" id="c140">
          <mxCell style="ellipse;whiteSpace=wrap;html=1;aspect=fixed;perimeter=ellipsePerimeter;fontSize=8;" parent="AcLKcFcPObNCE5Jz1mWQ-1" vertex="1">
            <mxGeometry x="230" y="230" width="20" height="20" as="geometry" />
          </mxCell>
        </object>
        <object label="%id%" placeholders="1" type="junction" id="c133">
          <mxCell style="ellipse;whiteSpace=wrap;html=1;aspect=fixed;perimeter=ellipsePerimeter;fontSize=8;" parent="AcLKcFcPObNCE5Jz1mWQ-1" vertex="1">
            <mxGeometry x="350" y="390" width="20" height="20" as="geometry" />
          </mxCell>
        </object>
        <object label="%id%" placeholders="1" type="junction" id="c134">
          <mxCell style="ellipse;whiteSpace=wrap;html=1;aspect=fixed;perimeter=ellipsePerimeter;fontSize=8;" parent="AcLKcFcPObNCE5Jz1mWQ-1" vertex="1">
            <mxGeometry x="350" y="470" width="20" height="20" as="geometry" />
          </mxCell>
        </object>
        <object label="%id%" placeholders="1" type="junction" id="c132">
          <mxCell style="ellipse;whiteSpace=wrap;html=1;aspect=fixed;perimeter=ellipsePerimeter;fontSize=8;" parent="AcLKcFcPObNCE5Jz1mWQ-1" vertex="1">
            <mxGeometry x="630" y="470" width="20" height="20" as="geometry" />
          </mxCell>
        </object>
        <object label="%id%" placeholders="1" type="junction" id="c131">
          <mxCell style="ellipse;whiteSpace=wrap;html=1;aspect=fixed;perimeter=ellipsePerimeter;fontSize=8;" parent="AcLKcFcPObNCE5Jz1mWQ-1" vertex="1">
            <mxGeometry x="630" y="390" width="20" height="20" as="geometry" />
          </mxCell>
        </object>
        <object label="%id%" placeholders="1" type="junction" id="c128">
          <mxCell style="ellipse;whiteSpace=wrap;html=1;aspect=fixed;perimeter=ellipsePerimeter;fontSize=8;" parent="AcLKcFcPObNCE5Jz1mWQ-1" vertex="1">
            <mxGeometry x="1190" y="470" width="20" height="20" as="geometry" />
          </mxCell>
        </object>
        <object label="%id%" placeholders="1" type="junction" id="c127">
          <mxCell style="ellipse;whiteSpace=wrap;html=1;aspect=fixed;perimeter=ellipsePerimeter;fontSize=8;" parent="AcLKcFcPObNCE5Jz1mWQ-1" vertex="1">
            <mxGeometry x="1190" y="390" width="20" height="20" as="geometry" />
          </mxCell>
        </object>
        <object label="%id%" placeholders="1" type="junction" id="c153">
          <mxCell style="ellipse;whiteSpace=wrap;html=1;aspect=fixed;perimeter=ellipsePerimeter;fontSize=8;" parent="AcLKcFcPObNCE5Jz1mWQ-1" vertex="1">
            <mxGeometry x="1350" y="230" width="20" height="20" as="geometry" />
          </mxCell>
        </object>
        <object label="%id%" placeholders="1" type="junction" id="c152">
          <mxCell style="ellipse;whiteSpace=wrap;html=1;aspect=fixed;perimeter=ellipsePerimeter;fontSize=8;" parent="AcLKcFcPObNCE5Jz1mWQ-1" vertex="1">
            <mxGeometry x="1350" y="310" width="20" height="20" as="geometry" />
          </mxCell>
        </object>
        <object label="%id%" placeholders="1" type="junction" id="c156">
          <mxCell style="ellipse;whiteSpace=wrap;html=1;aspect=fixed;perimeter=ellipsePerimeter;fontSize=8;" parent="AcLKcFcPObNCE5Jz1mWQ-1" vertex="1">
            <mxGeometry x="1630" y="230" width="20" height="20" as="geometry" />
          </mxCell>
        </object>
        <object label="%id%" placeholders="1" type="junction" id="c154">
          <mxCell style="ellipse;whiteSpace=wrap;html=1;aspect=fixed;perimeter=ellipsePerimeter;fontSize=8;" parent="AcLKcFcPObNCE5Jz1mWQ-1" vertex="1">
            <mxGeometry x="1630" y="310" width="20" height="20" as="geometry" />
          </mxCell>
        </object>
        <object label="%id%" placeholders="1" type="junction" id="c121">
          <mxCell style="ellipse;whiteSpace=wrap;html=1;aspect=fixed;perimeter=ellipsePerimeter;fontSize=8;" parent="AcLKcFcPObNCE5Jz1mWQ-1" vertex="1">
            <mxGeometry x="1750" y="390" width="20" height="20" as="geometry" />
          </mxCell>
        </object>
        <object label="%id%" placeholders="1" type="junction" id="c122">
          <mxCell style="ellipse;whiteSpace=wrap;html=1;aspect=fixed;perimeter=ellipsePerimeter;fontSize=8;" parent="AcLKcFcPObNCE5Jz1mWQ-1" vertex="1">
            <mxGeometry x="1750" y="470" width="20" height="20" as="geometry" />
          </mxCell>
        </object>
        <object label="%id%" placeholders="1" type="junction" id="c124">
          <mxCell style="ellipse;whiteSpace=wrap;html=1;aspect=fixed;perimeter=ellipsePerimeter;fontSize=8;" parent="AcLKcFcPObNCE5Jz1mWQ-1" vertex="1">
            <mxGeometry x="1630" y="470" width="20" height="20" as="geometry" />
          </mxCell>
        </object>
        <object label="%id%" placeholders="1" type="junction" id="c125">
          <mxCell style="ellipse;whiteSpace=wrap;html=1;aspect=fixed;perimeter=ellipsePerimeter;fontSize=8;" parent="AcLKcFcPObNCE5Jz1mWQ-1" vertex="1">
            <mxGeometry x="1470" y="390" width="20" height="20" as="geometry" />
          </mxCell>
        </object>
        <object label="%id%" placeholders="1" type="junction" id="c126">
          <mxCell style="ellipse;whiteSpace=wrap;html=1;aspect=fixed;perimeter=ellipsePerimeter;fontSize=8;" parent="AcLKcFcPObNCE5Jz1mWQ-1" vertex="1">
            <mxGeometry x="1470" y="470" width="20" height="20" as="geometry" />
          </mxCell>
        </object>
        <object label="%id%" placeholders="1" type="junction" id="c141">
          <mxCell style="ellipse;whiteSpace=wrap;html=1;aspect=fixed;perimeter=ellipsePerimeter;fontSize=8;" parent="AcLKcFcPObNCE5Jz1mWQ-1" vertex="1">
            <mxGeometry x="510" y="310" width="20" height="20" as="geometry" />
          </mxCell>
        </object>
        <object label="%id%" placeholders="1" type="junction" id="c145">
          <mxCell style="ellipse;whiteSpace=wrap;html=1;aspect=fixed;fontSize=8;" parent="AcLKcFcPObNCE5Jz1mWQ-1" vertex="1">
            <mxGeometry x="790" y="230" width="20" height="20" as="geometry" />
          </mxCell>
        </object>
        <object label="%id%" placeholders="1" type="junction" id="c144">
          <mxCell style="ellipse;whiteSpace=wrap;html=1;aspect=fixed;fontSize=8;" parent="AcLKcFcPObNCE5Jz1mWQ-1" vertex="1">
            <mxGeometry x="790" y="310" width="20" height="20" as="geometry" />
          </mxCell>
        </object>
        <object label="%id%" placeholders="1" type="junction" id="c146">
          <mxCell style="ellipse;whiteSpace=wrap;html=1;aspect=fixed;fontSize=8;" parent="AcLKcFcPObNCE5Jz1mWQ-1" vertex="1">
            <mxGeometry x="790" y="150" width="20" height="20" as="geometry" />
          </mxCell>
        </object>
        <object label="%id%" placeholders="1" type="junction" id="c151">
          <mxCell style="ellipse;whiteSpace=wrap;html=1;aspect=fixed;fontSize=8;" parent="AcLKcFcPObNCE5Jz1mWQ-1" vertex="1">
            <mxGeometry x="1070" y="230" width="20" height="20" as="geometry" />
          </mxCell>
        </object>
        <object label="%id%" placeholders="1" type="junction" id="c149">
          <mxCell style="ellipse;whiteSpace=wrap;html=1;aspect=fixed;fontSize=8;" parent="AcLKcFcPObNCE5Jz1mWQ-1" vertex="1">
            <mxGeometry x="950" y="150" width="20" height="20" as="geometry" />
          </mxCell>
        </object>
        <object label="%id%" placeholders="1" type="junction" id="c148">
          <mxCell style="ellipse;whiteSpace=wrap;html=1;aspect=fixed;fontSize=8;" parent="AcLKcFcPObNCE5Jz1mWQ-1" vertex="1">
            <mxGeometry x="950" y="230" width="20" height="20" as="geometry" />
          </mxCell>
        </object>
        <object label="%id%" placeholders="1" type="junction" id="c147">
          <mxCell style="ellipse;whiteSpace=wrap;html=1;aspect=fixed;fontSize=8;" parent="AcLKcFcPObNCE5Jz1mWQ-1" vertex="1">
            <mxGeometry x="950" y="310" width="20" height="20" as="geometry" />
          </mxCell>
        </object>
        <object label="%id%" placeholders="1" type="junction" id="c157">
          <mxCell style="ellipse;whiteSpace=wrap;html=1;aspect=fixed;perimeter=ellipsePerimeter;fontSize=8;" parent="AcLKcFcPObNCE5Jz1mWQ-1" vertex="1">
            <mxGeometry x="1750" y="230" width="20" height="20" as="geometry" />
          </mxCell>
        </object>
        <object label="%id%" placeholders="1" type="junction" id="c158">
          <mxCell style="ellipse;whiteSpace=wrap;html=1;aspect=fixed;perimeter=ellipsePerimeter;fontSize=8;" parent="AcLKcFcPObNCE5Jz1mWQ-1" vertex="1">
            <mxGeometry x="1750" y="310" width="20" height="20" as="geometry" />
          </mxCell>
        </object>
        <object label="%id%" placeholders="1" type="junction" id="c160">
          <mxCell style="ellipse;whiteSpace=wrap;html=1;aspect=fixed;perimeter=ellipsePerimeter;fontSize=8;" parent="AcLKcFcPObNCE5Jz1mWQ-1" vertex="1">
            <mxGeometry x="1910" y="230" width="20" height="20" as="geometry" />
          </mxCell>
        </object>
        <object label="%id%" placeholders="1" type="junction" id="c138">
          <mxCell style="ellipse;whiteSpace=wrap;html=1;aspect=fixed;perimeter=ellipsePerimeter;fontSize=8;" parent="AcLKcFcPObNCE5Jz1mWQ-1" vertex="1">
            <mxGeometry x="70" y="350" width="20" height="20" as="geometry" />
          </mxCell>
        </object>
        <object label="%id%" placeholders="1" type="junction" id="c137">
          <mxCell style="ellipse;whiteSpace=wrap;html=1;aspect=fixed;perimeter=ellipsePerimeter;fontSize=8;" parent="AcLKcFcPObNCE5Jz1mWQ-1" vertex="1">
            <mxGeometry x="150" y="350" width="20" height="20" as="geometry" />
          </mxCell>
        </object>
        <object label="%id%" placeholders="1" type="section" blockId="b00" id="S00">
          <mxCell style="endArrow=open;html=1;rounded=0;startArrow=oval;startFill=1;endFill=0;" parent="AcLKcFcPObNCE5Jz1mWQ-1" source="c140" target="c142" edge="1">
            <mxGeometry width="100" height="100" relative="1" as="geometry">
              <mxPoint x="400" y="238.62" as="sourcePoint" />
              <mxPoint x="390" y="240" as="targetPoint" />
              <mxPoint as="offset" />
            </mxGeometry>
          </mxCell>
        </object>
        <object label="%id%" placeholders="1" type="section" blockId="b01" id="S01">
          <mxCell style="endArrow=open;html=1;rounded=0;startArrow=oval;startFill=1;endFill=0;" parent="AcLKcFcPObNCE5Jz1mWQ-1" source="c139" target="c141" edge="1">
            <mxGeometry width="100" height="100" relative="1" as="geometry">
              <mxPoint x="440" y="230" as="sourcePoint" />
              <mxPoint x="390" y="320" as="targetPoint" />
            </mxGeometry>
          </mxCell>
        </object>
        <object label="%id%" placeholders="1" type="section" blockId="b32" id="S32">
          <mxCell style="endArrow=open;html=1;rounded=0;startArrow=oval;startFill=1;endFill=0;" parent="AcLKcFcPObNCE5Jz1mWQ-1" source="c124" target="c126" edge="1">
            <mxGeometry width="100" height="100" relative="1" as="geometry">
              <mxPoint x="1039.9999999999998" y="240.00000000000009" as="sourcePoint" />
              <mxPoint x="1610" y="480" as="targetPoint" />
            </mxGeometry>
          </mxCell>
        </object>
        <object label="%id%" placeholders="1" type="section" blockId="b32" id="S34">
          <mxCell style="endArrow=open;html=1;rounded=0;startArrow=oval;startFill=1;endFill=0;" parent="AcLKcFcPObNCE5Jz1mWQ-1" source="c123" target="c125" edge="1">
            <mxGeometry width="100" height="100" relative="1" as="geometry">
              <mxPoint x="1640" y="399.4" as="sourcePoint" />
              <mxPoint x="1530" y="400" as="targetPoint" />
            </mxGeometry>
          </mxCell>
        </object>
        <object label="%id%" placeholders="1" type="section" blockId="b41" id="S41">
          <mxCell style="endArrow=open;html=1;rounded=0;startArrow=oval;startFill=1;endFill=0;" parent="AcLKcFcPObNCE5Jz1mWQ-1" source="c128" target="j12" edge="1">
            <mxGeometry width="100" height="100" relative="1" as="geometry">
              <mxPoint x="1200" y="450" as="sourcePoint" />
              <mxPoint x="1050" y="480" as="targetPoint" />
            </mxGeometry>
          </mxCell>
        </object>
        <object label="%id%" placeholders="1" type="section" blockId="b08" id="S08">
          <mxCell style="endArrow=open;html=1;rounded=0;startArrow=oval;startFill=1;endFill=0;" parent="AcLKcFcPObNCE5Jz1mWQ-1" source="c142" target="c146" edge="1">
            <mxGeometry width="100" height="100" relative="1" as="geometry">
              <mxPoint x="494.47213595499954" y="321.0557280900008" as="sourcePoint" />
              <mxPoint x="525.5278640450005" y="258.9442719099992" as="targetPoint" />
              <Array as="points">
                <mxPoint x="720" y="240" />
                <mxPoint x="760" y="160" />
              </Array>
            </mxGeometry>
          </mxCell>
        </object>
        <object label="%id%" placeholders="1" type="section" blockId="b09" id="S09">
          <mxCell style="endArrow=open;html=1;rounded=0;startArrow=oval;startFill=1;endFill=0;" parent="AcLKcFcPObNCE5Jz1mWQ-1" source="c141" target="j04" edge="1">
            <mxGeometry width="100" height="100" relative="1" as="geometry">
              <mxPoint x="504.47213595499954" y="331.0557280900008" as="sourcePoint" />
              <mxPoint x="535.5278640450005" y="268.9442719099992" as="targetPoint" />
            </mxGeometry>
          </mxCell>
        </object>
        <object label="%id%" placeholders="1" type="section" blockId="b09" id="S10">
          <mxCell style="endArrow=open;html=1;rounded=0;startArrow=oval;startFill=1;endFill=0;" parent="AcLKcFcPObNCE5Jz1mWQ-1" source="j04" target="c145" edge="1">
            <mxGeometry width="100" height="100" relative="1" as="geometry">
              <mxPoint x="514.4721359549995" y="341.0557280900008" as="sourcePoint" />
              <mxPoint x="545.5278640450005" y="278.9442719099992" as="targetPoint" />
            </mxGeometry>
          </mxCell>
        </object>
        <object label="%id%" placeholders="1" type="section" blockId="b09" id="S11">
          <mxCell style="endArrow=open;html=1;rounded=0;startArrow=oval;startFill=1;endFill=0;" parent="AcLKcFcPObNCE5Jz1mWQ-1" source="j04" target="c144" edge="1">
            <mxGeometry width="100" height="100" relative="1" as="geometry">
              <mxPoint x="524.4721359549995" y="351.0557280900008" as="sourcePoint" />
              <mxPoint x="555.5278640450005" y="288.9442719099992" as="targetPoint" />
            </mxGeometry>
          </mxCell>
        </object>
        <object label="%id%" placeholders="1" type="section" blockId="b12" id="S12">
          <mxCell style="endArrow=open;html=1;rounded=0;startArrow=oval;startFill=1;endFill=0;" parent="AcLKcFcPObNCE5Jz1mWQ-1" source="c146" target="c149" edge="1">
            <mxGeometry width="100" height="100" relative="1" as="geometry">
              <mxPoint x="850" y="270" as="sourcePoint" />
              <mxPoint x="910" y="160" as="targetPoint" />
            </mxGeometry>
          </mxCell>
        </object>
        <object label="%id%" placeholders="1" type="section" blockId="b13" id="S13">
          <mxCell style="endArrow=open;html=1;rounded=0;startArrow=oval;startFill=1;endFill=0;" parent="AcLKcFcPObNCE5Jz1mWQ-1" source="c145" target="c148" edge="1">
            <mxGeometry width="100" height="100" relative="1" as="geometry">
              <mxPoint x="820" y="170" as="sourcePoint" />
              <mxPoint x="960" y="170" as="targetPoint" />
            </mxGeometry>
          </mxCell>
        </object>
        <object label="%id%" placeholders="1" type="section" blockId="b14" id="S14">
          <mxCell style="endArrow=open;html=1;rounded=0;startArrow=oval;startFill=1;endFill=0;" parent="AcLKcFcPObNCE5Jz1mWQ-1" source="c144" target="c147" edge="1">
            <mxGeometry width="100" height="100" relative="1" as="geometry">
              <mxPoint x="830" y="180" as="sourcePoint" />
              <mxPoint x="970" y="180" as="targetPoint" />
            </mxGeometry>
          </mxCell>
        </object>
        <object label="%id%" placeholders="1" type="section" blockId="b15" id="S15">
          <mxCell style="endArrow=open;html=1;rounded=0;startArrow=oval;startFill=1;endFill=0;" parent="AcLKcFcPObNCE5Jz1mWQ-1" source="c149" target="j05" edge="1">
            <mxGeometry width="100" height="100" relative="1" as="geometry">
              <mxPoint x="840" y="190" as="sourcePoint" />
              <mxPoint x="980" y="190" as="targetPoint" />
            </mxGeometry>
          </mxCell>
        </object>
        <object label="%id%" placeholders="1" type="section" blockId="b15" id="S16">
          <mxCell style="endArrow=open;html=1;rounded=0;startArrow=oval;startFill=1;endFill=0;" parent="AcLKcFcPObNCE5Jz1mWQ-1" source="c148" target="j05" edge="1">
            <mxGeometry width="100" height="100" relative="1" as="geometry">
              <mxPoint x="850" y="200" as="sourcePoint" />
              <mxPoint x="990" y="200" as="targetPoint" />
            </mxGeometry>
          </mxCell>
        </object>
        <object label="%id%" placeholders="1" type="section" blockId="b15" id="S17">
          <mxCell style="endArrow=open;html=1;rounded=0;startArrow=oval;startFill=1;endFill=0;" parent="AcLKcFcPObNCE5Jz1mWQ-1" source="c147" target="j07" edge="1">
            <mxGeometry width="100" height="100" relative="1" as="geometry">
              <mxPoint x="860" y="210" as="sourcePoint" />
              <mxPoint x="1000" y="210" as="targetPoint" />
            </mxGeometry>
          </mxCell>
        </object>
        <object label="%id%" placeholders="1" type="section" blockId="b15" id="S18">
          <mxCell style="endArrow=open;html=1;rounded=0;startArrow=oval;startFill=1;endFill=0;" parent="AcLKcFcPObNCE5Jz1mWQ-1" source="j05" target="j06" edge="1">
            <mxGeometry width="100" height="100" relative="1" as="geometry">
              <mxPoint x="870" y="220" as="sourcePoint" />
              <mxPoint x="1010" y="220" as="targetPoint" />
            </mxGeometry>
          </mxCell>
        </object>
        <object label="%id%" placeholders="1" type="section" blockId="b15" id="S19">
          <mxCell style="endArrow=open;html=1;rounded=0;startArrow=oval;startFill=1;endFill=0;" parent="AcLKcFcPObNCE5Jz1mWQ-1" source="j06" target="c151" edge="1">
            <mxGeometry width="100" height="100" relative="1" as="geometry">
              <mxPoint x="880" y="230" as="sourcePoint" />
              <mxPoint x="1020" y="230" as="targetPoint" />
            </mxGeometry>
          </mxCell>
        </object>
        <object label="%id%" placeholders="1" type="section" blockId="b15" id="S20">
          <mxCell style="endArrow=open;html=1;rounded=0;startArrow=oval;startFill=1;endFill=0;" parent="AcLKcFcPObNCE5Jz1mWQ-1" source="j06" target="j07" edge="1">
            <mxGeometry width="100" height="100" relative="1" as="geometry">
              <mxPoint x="890" y="240" as="sourcePoint" />
              <mxPoint x="1030" y="240" as="targetPoint" />
            </mxGeometry>
          </mxCell>
        </object>
        <object label="%id%" placeholders="1" type="section" blockId="b21" id="S21">
          <mxCell style="endArrow=open;html=1;rounded=0;startArrow=oval;startFill=1;endFill=0;" parent="AcLKcFcPObNCE5Jz1mWQ-1" source="c151" target="c153" edge="1">
            <mxGeometry width="100" height="100" relative="1" as="geometry">
              <mxPoint x="900" y="250" as="sourcePoint" />
              <mxPoint x="1220" y="270" as="targetPoint" />
            </mxGeometry>
          </mxCell>
        </object>
        <object label="%id%" placeholders="1" type="section" blockId="b22" id="S22">
          <mxCell style="endArrow=open;html=1;rounded=0;startArrow=oval;startFill=1;endFill=0;" parent="AcLKcFcPObNCE5Jz1mWQ-1" source="j07" target="c152" edge="1">
            <mxGeometry width="100" height="100" relative="1" as="geometry">
              <mxPoint x="1100" y="250" as="sourcePoint" />
              <mxPoint x="1360" y="250" as="targetPoint" />
            </mxGeometry>
          </mxCell>
        </object>
        <object label="%id%" placeholders="1" type="section" blockId="b23" id="S23">
          <mxCell style="endArrow=open;html=1;rounded=0;startArrow=oval;startFill=1;endFill=0;" parent="AcLKcFcPObNCE5Jz1mWQ-1" source="c153" target="c156" edge="1">
            <mxGeometry width="100" height="100" relative="1" as="geometry">
              <mxPoint x="1390" y="260" as="sourcePoint" />
              <mxPoint x="1650" y="260" as="targetPoint" />
            </mxGeometry>
          </mxCell>
        </object>
        <object label="%id%" placeholders="1" type="section" blockId="b24" id="S24">
          <mxCell style="endArrow=open;html=1;rounded=0;startArrow=oval;startFill=1;endFill=0;" parent="AcLKcFcPObNCE5Jz1mWQ-1" source="c152" target="c154" edge="1">
            <mxGeometry width="100" height="100" relative="1" as="geometry">
              <mxPoint x="1380" y="250" as="sourcePoint" />
              <mxPoint x="1640" y="250" as="targetPoint" />
            </mxGeometry>
          </mxCell>
        </object>
        <object label="%id%" placeholders="1" type="section" blockId="b25" id="S25">
          <mxCell style="endArrow=open;html=1;rounded=0;startArrow=oval;startFill=1;endFill=0;" parent="AcLKcFcPObNCE5Jz1mWQ-1" source="c156" target="c157" edge="1">
            <mxGeometry width="100" height="100" relative="1" as="geometry">
              <mxPoint x="1630" y="219.32999999999998" as="sourcePoint" />
              <mxPoint x="1890" y="219.32999999999998" as="targetPoint" />
            </mxGeometry>
          </mxCell>
        </object>
        <object label="%id%" placeholders="1" type="section" blockId="b26" id="S26">
          <mxCell style="endArrow=open;html=1;rounded=0;startArrow=oval;startFill=1;endFill=0;" parent="AcLKcFcPObNCE5Jz1mWQ-1" source="c154" target="c158" edge="1">
            <mxGeometry width="100" height="100" relative="1" as="geometry">
              <mxPoint x="1660" y="250" as="sourcePoint" />
              <mxPoint x="1920" y="250" as="targetPoint" />
              <Array as="points" />
            </mxGeometry>
          </mxCell>
        </object>
        <object label="%id%" placeholders="1" type="section" blockId="b58" id="S58">
          <mxCell style="endArrow=open;html=1;rounded=0;startArrow=oval;startFill=1;endFill=0;" parent="AcLKcFcPObNCE5Jz1mWQ-1" source="c157" target="c160" edge="1">
            <mxGeometry x="0.0041" width="100" height="100" relative="1" as="geometry">
              <mxPoint x="1670" y="260" as="sourcePoint" />
              <mxPoint x="1930" y="260" as="targetPoint" />
              <mxPoint as="offset" />
            </mxGeometry>
          </mxCell>
        </object>
        <object label="%id%" placeholders="1" type="section" blockId="b59" id="S59">
          <mxCell style="endArrow=open;html=1;rounded=0;startArrow=oval;startFill=1;endFill=0;" parent="AcLKcFcPObNCE5Jz1mWQ-1" source="c158" target="c159" edge="1">
            <mxGeometry width="100" height="100" relative="1" as="geometry">
              <mxPoint x="1680" y="270" as="sourcePoint" />
              <mxPoint x="1820" y="320" as="targetPoint" />
              <Array as="points" />
            </mxGeometry>
          </mxCell>
        </object>
        <object label="%id%" placeholders="1" type="section" blockId="b30" id="S30">
          <mxCell style="endArrow=open;html=1;rounded=0;startArrow=oval;startFill=1;endFill=0;" parent="AcLKcFcPObNCE5Jz1mWQ-1" source="c122" target="c124" edge="1">
            <mxGeometry width="100" height="100" relative="1" as="geometry">
              <mxPoint x="1920" y="490" as="sourcePoint" />
              <mxPoint x="1780" y="490" as="targetPoint" />
            </mxGeometry>
          </mxCell>
        </object>
        <object label="%id%" placeholders="1" type="section" blockId="b31" id="S31">
          <mxCell style="endArrow=open;html=1;rounded=0;startArrow=oval;startFill=1;endFill=0;" parent="AcLKcFcPObNCE5Jz1mWQ-1" source="c121" target="c123" edge="1">
            <mxGeometry width="100" height="100" relative="1" as="geometry">
              <mxPoint x="1930" y="500" as="sourcePoint" />
              <mxPoint x="1790" y="500" as="targetPoint" />
            </mxGeometry>
          </mxCell>
        </object>
        <object label="%id%" placeholders="1" type="section" blockId="b39" id="S39">
          <mxCell style="endArrow=open;html=1;rounded=0;startArrow=oval;startFill=1;endFill=0;" parent="AcLKcFcPObNCE5Jz1mWQ-1" source="c126" target="c128" edge="1">
            <mxGeometry x="0.0233" width="100" height="100" relative="1" as="geometry">
              <mxPoint x="1570" y="500" as="sourcePoint" />
              <mxPoint x="1207.4073621961807" y="470" as="targetPoint" />
              <mxPoint as="offset" />
            </mxGeometry>
          </mxCell>
        </object>
        <object label="%id%" placeholders="1" type="section" blockId="b40" id="S40">
          <mxCell style="endArrow=open;html=1;rounded=0;startArrow=oval;startFill=1;endFill=0;" parent="AcLKcFcPObNCE5Jz1mWQ-1" source="c125" target="c127" edge="1">
            <mxGeometry x="0.0233" width="100" height="100" relative="1" as="geometry">
              <mxPoint x="1480" y="490" as="sourcePoint" />
              <mxPoint x="1219.999999999982" y="490" as="targetPoint" />
              <mxPoint as="offset" />
            </mxGeometry>
          </mxCell>
        </object>
        <object label="%id%" placeholders="1" type="section" blockId="b42" id="S42">
          <mxCell style="endArrow=open;html=1;rounded=0;startArrow=oval;startFill=1;endFill=0;" parent="AcLKcFcPObNCE5Jz1mWQ-1" source="c127" target="j13" edge="1">
            <mxGeometry width="100" height="100" relative="1" as="geometry">
              <mxPoint x="1200" y="490" as="sourcePoint" />
              <mxPoint x="1050" y="400" as="targetPoint" />
            </mxGeometry>
          </mxCell>
        </object>
        <object label="%id%" placeholders="1" type="section" blockId="b49" id="S49">
          <mxCell style="endArrow=open;html=1;rounded=0;startArrow=oval;startFill=1;endFill=0;" parent="AcLKcFcPObNCE5Jz1mWQ-1" source="j15" target="c132" edge="1">
            <mxGeometry width="100" height="100" relative="1" as="geometry">
              <mxPoint x="910" y="480" as="sourcePoint" />
              <mxPoint x="990" y="420" as="targetPoint" />
            </mxGeometry>
          </mxCell>
        </object>
        <object label="%id%" placeholders="1" type="section" blockId="b50" id="S50">
          <mxCell style="endArrow=open;html=1;rounded=0;startArrow=oval;startFill=1;endFill=0;" parent="AcLKcFcPObNCE5Jz1mWQ-1" source="c129" target="c131" edge="1">
            <mxGeometry width="100" height="100" relative="1" as="geometry">
              <mxPoint x="910" y="400" as="sourcePoint" />
              <mxPoint x="660" y="490" as="targetPoint" />
            </mxGeometry>
          </mxCell>
        </object>
        <object label="%id%" placeholders="1" type="section" blockId="b51" id="S51">
          <mxCell style="endArrow=open;html=1;rounded=0;startArrow=oval;startFill=1;endFill=0;" parent="AcLKcFcPObNCE5Jz1mWQ-1" source="c132" target="c134" edge="1">
            <mxGeometry width="100" height="100" relative="1" as="geometry">
              <mxPoint x="930" y="500" as="sourcePoint" />
              <mxPoint x="670" y="500" as="targetPoint" />
            </mxGeometry>
          </mxCell>
        </object>
        <object label="%id%" placeholders="1" type="section" blockId="b52" id="S52">
          <mxCell style="endArrow=open;html=1;rounded=0;startArrow=oval;startFill=1;endFill=0;" parent="AcLKcFcPObNCE5Jz1mWQ-1" source="c131" target="c133" edge="1">
            <mxGeometry width="100" height="100" relative="1" as="geometry">
              <mxPoint x="640" y="490" as="sourcePoint" />
              <mxPoint x="380" y="490" as="targetPoint" />
            </mxGeometry>
          </mxCell>
        </object>
        <object label="%id%" placeholders="1" type="section" blockId="b53" id="S53">
          <mxCell style="endArrow=open;html=1;rounded=0;startArrow=oval;startFill=1;endFill=0;" parent="AcLKcFcPObNCE5Jz1mWQ-1" source="c136" target="c138" edge="1">
            <mxGeometry width="100" height="100" relative="1" as="geometry">
              <mxPoint x="230" y="500" as="sourcePoint" />
              <mxPoint x="80" y="510" as="targetPoint" />
              <Array as="points">
                <mxPoint x="80" y="480" />
              </Array>
            </mxGeometry>
          </mxCell>
        </object>
        <object label="%id%" placeholders="1" type="section" blockId="b54" id="S54">
          <mxCell style="endArrow=open;html=1;rounded=0;startArrow=oval;startFill=1;endFill=0;" parent="AcLKcFcPObNCE5Jz1mWQ-1" source="c135" target="c137" edge="1">
            <mxGeometry width="100" height="100" relative="1" as="geometry">
              <mxPoint x="220" y="430" as="sourcePoint" />
              <mxPoint x="100" y="490" as="targetPoint" />
              <Array as="points">
                <mxPoint x="160" y="400" />
              </Array>
            </mxGeometry>
          </mxCell>
        </object>
        <object label="%id%" placeholders="1" type="section" blockId="b56" id="S56">
          <mxCell style="endArrow=open;html=1;rounded=0;startArrow=oval;startFill=1;endFill=0;" parent="AcLKcFcPObNCE5Jz1mWQ-1" source="c137" target="c139" edge="1">
            <mxGeometry width="100" height="100" relative="1" as="geometry">
              <mxPoint x="380" y="510" as="sourcePoint" />
              <mxPoint x="120" y="510" as="targetPoint" />
              <Array as="points">
                <mxPoint x="160" y="320" />
              </Array>
            </mxGeometry>
          </mxCell>
        </object>
        <object label="%id%" placeholders="1" type="section" blockId="b57" id="S57">
          <mxCell style="endArrow=open;html=1;rounded=0;startArrow=oval;startFill=1;endFill=0;" parent="AcLKcFcPObNCE5Jz1mWQ-1" source="c138" target="c140" edge="1">
            <mxGeometry width="100" height="100" relative="1" as="geometry">
              <mxPoint x="90" y="240" as="sourcePoint" />
              <mxPoint x="130" y="520" as="targetPoint" />
              <Array as="points">
                <mxPoint x="80" y="240" />
              </Array>
            </mxGeometry>
          </mxCell>
        </object>
        <object label="%id%" placeholders="1" type="junction" id="c159">
          <mxCell style="ellipse;whiteSpace=wrap;html=1;aspect=fixed;perimeter=ellipsePerimeter;fontSize=8;" parent="AcLKcFcPObNCE5Jz1mWQ-1" vertex="1">
            <mxGeometry x="1830" y="310" width="20" height="20" as="geometry" />
          </mxCell>
        </object>
        <object label="%id%" placeholders="1" type="junction" id="c162">
          <mxCell style="ellipse;whiteSpace=wrap;html=1;aspect=fixed;perimeter=ellipsePerimeter;fontSize=8;" parent="AcLKcFcPObNCE5Jz1mWQ-1" vertex="1">
            <mxGeometry x="1910" y="470" width="20" height="20" as="geometry" />
          </mxCell>
        </object>
        <object label="%id%" placeholders="1" type="junction" id="c161">
          <mxCell style="ellipse;whiteSpace=wrap;html=1;aspect=fixed;perimeter=ellipsePerimeter;fontSize=8;" parent="AcLKcFcPObNCE5Jz1mWQ-1" vertex="1">
            <mxGeometry x="1830" y="390" width="20" height="20" as="geometry" />
          </mxCell>
        </object>
        <object label="%id%" placeholders="1" type="section" blockId="b60" id="S60">
          <mxCell style="endArrow=open;html=1;rounded=0;startArrow=oval;startFill=1;endFill=0;" parent="AcLKcFcPObNCE5Jz1mWQ-1" source="c160" target="c162" edge="1">
            <mxGeometry x="0.0041" width="100" height="100" relative="1" as="geometry">
              <mxPoint x="1780" y="250" as="sourcePoint" />
              <mxPoint x="1920" y="250" as="targetPoint" />
              <mxPoint as="offset" />
            </mxGeometry>
          </mxCell>
        </object>
        <object label="%id%" placeholders="1" type="section" blockId="b61" id="S61">
          <mxCell style="endArrow=open;html=1;rounded=0;startArrow=oval;startFill=1;endFill=0;" parent="AcLKcFcPObNCE5Jz1mWQ-1" source="c159" target="c161" edge="1">
            <mxGeometry x="0.0041" width="100" height="100" relative="1" as="geometry">
              <mxPoint x="1790" y="260" as="sourcePoint" />
              <mxPoint x="1930" y="260" as="targetPoint" />
              <mxPoint as="offset" />
            </mxGeometry>
          </mxCell>
        </object>
        <object label="%id%" placeholders="1" type="section" blockId="b62" id="S62">
          <mxCell style="endArrow=open;html=1;rounded=0;startArrow=oval;startFill=1;endFill=0;" parent="AcLKcFcPObNCE5Jz1mWQ-1" source="c162" target="c122" edge="1">
            <mxGeometry x="0.0041" width="100" height="100" relative="1" as="geometry">
              <mxPoint x="1800" y="270" as="sourcePoint" />
              <mxPoint x="1940" y="270" as="targetPoint" />
              <mxPoint as="offset" />
            </mxGeometry>
          </mxCell>
        </object>
        <object label="%id%" placeholders="1" type="section" blockId="b63" id="S63">
          <mxCell style="endArrow=open;html=1;rounded=0;startArrow=oval;startFill=1;endFill=0;" parent="AcLKcFcPObNCE5Jz1mWQ-1" source="c161" target="c121" edge="1">
            <mxGeometry x="0.0041" width="100" height="100" relative="1" as="geometry">
              <mxPoint x="1810" y="280" as="sourcePoint" />
              <mxPoint x="1950" y="280" as="targetPoint" />
              <mxPoint as="offset" />
            </mxGeometry>
          </mxCell>
        </object>
        <object label="%id%" placeholders="1" type="junction" id="j14">
          <mxCell style="ellipse;whiteSpace=wrap;html=1;aspect=fixed;fontSize=8;" parent="AcLKcFcPObNCE5Jz1mWQ-1" vertex="1">
            <mxGeometry x="950" y="390" width="20" height="20" as="geometry" />
          </mxCell>
        </object>
        <object label="%id%" placeholders="1" type="junction" id="j13">
          <mxCell style="ellipse;whiteSpace=wrap;html=1;aspect=fixed;fontSize=8;" parent="AcLKcFcPObNCE5Jz1mWQ-1" vertex="1">
            <mxGeometry x="990" y="390" width="20" height="20" as="geometry" />
          </mxCell>
        </object>
        <object label="%id%" placeholders="1" type="junction" id="j15">
          <mxCell style="ellipse;whiteSpace=wrap;html=1;aspect=fixed;fontSize=8;" parent="AcLKcFcPObNCE5Jz1mWQ-1" vertex="1">
            <mxGeometry x="910" y="470" width="20" height="20" as="geometry" />
          </mxCell>
        </object>
        <object label="%id%" placeholders="1" type="junction" id="j12">
          <mxCell style="ellipse;whiteSpace=wrap;html=1;aspect=fixed;fontSize=8;" parent="AcLKcFcPObNCE5Jz1mWQ-1" vertex="1">
            <mxGeometry x="1030" y="470" width="20" height="20" as="geometry" />
          </mxCell>
        </object>
        <object label="%id%" placeholders="1" type="junction" id="c129">
          <mxCell style="ellipse;whiteSpace=wrap;html=1;aspect=fixed;perimeter=ellipsePerimeter;fontSize=8;" parent="AcLKcFcPObNCE5Jz1mWQ-1" vertex="1">
            <mxGeometry x="910" y="390" width="20" height="20" as="geometry" />
          </mxCell>
        </object>
        <object label="%id%" placeholders="1" type="section" blockId="b43" id="S47">
          <mxCell style="endArrow=open;html=1;rounded=0;startArrow=oval;startFill=1;endFill=0;" parent="AcLKcFcPObNCE5Jz1mWQ-1" source="j14" target="j15" edge="1">
            <mxGeometry width="100" height="100" relative="1" as="geometry">
              <mxPoint x="960" y="399.9999999999999" as="sourcePoint" />
              <mxPoint x="920" y="479.9999999999999" as="targetPoint" />
            </mxGeometry>
          </mxCell>
        </object>
        <object label="%id%" placeholders="1" type="section" blockId="b43" id="S44">
          <mxCell style="endArrow=open;html=1;rounded=0;startArrow=oval;startFill=1;endFill=0;" parent="AcLKcFcPObNCE5Jz1mWQ-1" source="j12" target="j13" edge="1">
            <mxGeometry width="100" height="100" relative="1" as="geometry">
              <mxPoint x="1040" y="479.9999999999999" as="sourcePoint" />
              <mxPoint x="1000" y="399.9999999999999" as="targetPoint" />
            </mxGeometry>
          </mxCell>
        </object>
        <object label="%id%" placeholders="1" type="section" blockId="b43" id="S46">
          <mxCell style="endArrow=open;html=1;rounded=0;startArrow=oval;startFill=1;endFill=0;" parent="AcLKcFcPObNCE5Jz1mWQ-1" source="j13" target="j14" edge="1">
            <mxGeometry width="100" height="100" relative="1" as="geometry">
              <mxPoint x="1000" y="400" as="sourcePoint" />
              <mxPoint x="960" y="400" as="targetPoint" />
            </mxGeometry>
          </mxCell>
        </object>
        <object label="%id%" placeholders="1" type="section" blockId="b43" id="S43">
          <mxCell style="endArrow=open;html=1;rounded=0;startArrow=oval;startFill=1;endFill=0;" parent="AcLKcFcPObNCE5Jz1mWQ-1" source="j12" target="j15" edge="1">
            <mxGeometry width="100" height="100" relative="1" as="geometry">
              <mxPoint x="1040" y="480" as="sourcePoint" />
              <mxPoint x="920" y="480" as="targetPoint" />
            </mxGeometry>
          </mxCell>
        </object>
        <object label="%id%" placeholders="1" type="section" blockId="b43" id="S48">
          <mxCell style="endArrow=open;html=1;rounded=0;startArrow=oval;startFill=1;endFill=0;" parent="AcLKcFcPObNCE5Jz1mWQ-1" source="j14" target="c129" edge="1">
            <mxGeometry width="100" height="100" relative="1" as="geometry">
              <mxPoint x="1000.0000000000123" y="410" as="sourcePoint" />
              <mxPoint x="980" y="410" as="targetPoint" />
              <mxPoint as="offset" />
            </mxGeometry>
          </mxCell>
        </object>
        <object label="%id%" placeholders="1" type="junction" id="c135">
          <mxCell style="ellipse;whiteSpace=wrap;html=1;aspect=fixed;perimeter=ellipsePerimeter;fontSize=8;" parent="AcLKcFcPObNCE5Jz1mWQ-1" vertex="1">
            <mxGeometry x="230" y="390" width="20" height="20" as="geometry" />
          </mxCell>
        </object>
        <object label="%id%" placeholders="1" type="junction" id="c136">
          <mxCell style="ellipse;whiteSpace=wrap;html=1;aspect=fixed;perimeter=ellipsePerimeter;fontSize=8;" parent="AcLKcFcPObNCE5Jz1mWQ-1" vertex="1">
            <mxGeometry x="230" y="470" width="20" height="20" as="geometry" />
          </mxCell>
        </object>
        <object label="%id%" placeholders="1" type="section" blockId="b51" id="S64">
          <mxCell style="endArrow=open;html=1;rounded=0;startArrow=oval;startFill=1;endFill=0;" parent="AcLKcFcPObNCE5Jz1mWQ-1" source="c134" target="c136" edge="1">
            <mxGeometry width="100" height="100" relative="1" as="geometry">
              <mxPoint x="440" y="510" as="sourcePoint" />
              <mxPoint x="380" y="490" as="targetPoint" />
            </mxGeometry>
          </mxCell>
        </object>
        <object label="%id%" placeholders="1" type="section" blockId="b51" id="S65">
          <mxCell style="endArrow=open;html=1;rounded=0;startArrow=oval;startFill=1;endFill=0;" parent="AcLKcFcPObNCE5Jz1mWQ-1" source="c133" target="c135" edge="1">
            <mxGeometry width="100" height="100" relative="1" as="geometry">
              <mxPoint x="360" y="490" as="sourcePoint" />
              <mxPoint x="260" y="490" as="targetPoint" />
            </mxGeometry>
          </mxCell>
        </object>
      </root>
    </mxGraphModel>
  </diagram>
</mxfile>
